<svg width="150" height="42" viewBox="0 0 150 42" fill="none" xmlns="http://www.w3.org/2000/svg">
<rect width="150" height="42" rx="21" fill="#833AE0"/>
<path d="M77.8711 16.9287L74.5762 26H73.2295L77.0234 16.0469H77.8916L77.8711 16.9287ZM80.6328 26L77.3311 16.9287L77.3105 16.0469H78.1787L81.9863 26H80.6328ZM80.4619 22.3154V23.3955H74.8701V22.3154H80.4619ZM87.79 24.5645V15.5H89.0615V26H87.8994L87.79 24.5645ZM82.8135 22.3838V22.2402C82.8135 21.6751 82.8818 21.1624 83.0186 20.7021C83.1598 20.2373 83.3581 19.8385 83.6133 19.5059C83.873 19.1732 84.1807 18.918 84.5361 18.7402C84.8962 18.5579 85.2972 18.4668 85.7393 18.4668C86.2041 18.4668 86.6097 18.5488 86.9561 18.7129C87.307 18.8724 87.6032 19.1071 87.8447 19.417C88.0908 19.7223 88.2845 20.0915 88.4258 20.5244C88.5671 20.9574 88.665 21.4473 88.7197 21.9941V22.623C88.6696 23.1654 88.5716 23.653 88.4258 24.0859C88.2845 24.5189 88.0908 24.888 87.8447 25.1934C87.6032 25.4987 87.307 25.7334 86.9561 25.8975C86.6051 26.057 86.195 26.1367 85.7256 26.1367C85.2926 26.1367 84.8962 26.0433 84.5361 25.8564C84.1807 25.6696 83.873 25.4076 83.6133 25.0703C83.3581 24.7331 83.1598 24.3366 83.0186 23.8809C82.8818 23.4206 82.8135 22.9215 82.8135 22.3838ZM84.085 22.2402V22.3838C84.085 22.7529 84.1214 23.0993 84.1943 23.4229C84.2718 23.7464 84.3903 24.0312 84.5498 24.2773C84.7093 24.5234 84.9121 24.7171 85.1582 24.8584C85.4043 24.9951 85.6982 25.0635 86.04 25.0635C86.4593 25.0635 86.8034 24.9746 87.0723 24.7969C87.3457 24.6191 87.5645 24.3844 87.7285 24.0928C87.8926 23.8011 88.0202 23.4844 88.1113 23.1426V21.4951C88.0566 21.2445 87.9769 21.0029 87.8721 20.7705C87.7718 20.5335 87.6396 20.3239 87.4756 20.1416C87.3161 19.9548 87.1178 19.8066 86.8809 19.6973C86.6484 19.5879 86.3727 19.5332 86.0537 19.5332C85.7074 19.5332 85.4089 19.6061 85.1582 19.752C84.9121 19.8932 84.7093 20.0892 84.5498 20.3398C84.3903 20.5859 84.2718 20.873 84.1943 21.2012C84.1214 21.5247 84.085 21.8711 84.085 22.2402ZM95.6924 24.5645V15.5H96.9639V26H95.8018L95.6924 24.5645ZM90.7158 22.3838V22.2402C90.7158 21.6751 90.7842 21.1624 90.9209 20.7021C91.0622 20.2373 91.2604 19.8385 91.5156 19.5059C91.7754 19.1732 92.083 18.918 92.4385 18.7402C92.7985 18.5579 93.1995 18.4668 93.6416 18.4668C94.1064 18.4668 94.512 18.5488 94.8584 18.7129C95.2093 18.8724 95.5055 19.1071 95.7471 19.417C95.9932 19.7223 96.1868 20.0915 96.3281 20.5244C96.4694 20.9574 96.5674 21.4473 96.6221 21.9941V22.623C96.5719 23.1654 96.474 23.653 96.3281 24.0859C96.1868 24.5189 95.9932 24.888 95.7471 25.1934C95.5055 25.4987 95.2093 25.7334 94.8584 25.8975C94.5075 26.057 94.0973 26.1367 93.6279 26.1367C93.195 26.1367 92.7985 26.0433 92.4385 25.8564C92.083 25.6696 91.7754 25.4076 91.5156 25.0703C91.2604 24.7331 91.0622 24.3366 90.9209 23.8809C90.7842 23.4206 90.7158 22.9215 90.7158 22.3838ZM91.9873 22.2402V22.3838C91.9873 22.7529 92.0238 23.0993 92.0967 23.4229C92.1742 23.7464 92.2926 24.0312 92.4521 24.2773C92.6117 24.5234 92.8145 24.7171 93.0605 24.8584C93.3066 24.9951 93.6006 25.0635 93.9424 25.0635C94.3617 25.0635 94.7057 24.9746 94.9746 24.7969C95.248 24.6191 95.4668 24.3844 95.6309 24.0928C95.7949 23.8011 95.9225 23.4844 96.0137 23.1426V21.4951C95.959 21.2445 95.8792 21.0029 95.7744 20.7705C95.6742 20.5335 95.542 20.3239 95.3779 20.1416C95.2184 19.9548 95.0202 19.8066 94.7832 19.6973C94.5508 19.5879 94.2751 19.5332 93.9561 19.5332C93.6097 19.5332 93.3112 19.6061 93.0605 19.752C92.8145 19.8932 92.6117 20.0892 92.4521 20.3398C92.2926 20.5859 92.1742 20.873 92.0967 21.2012C92.0238 21.5247 91.9873 21.8711 91.9873 22.2402Z" fill="white"/>
<rect width="42" height="42" rx="21" fill="#9953F1"/>
<path d="M21.6084 20.6611H24.3838V21.8574H21.6084V25.002H20.3369V21.8574H17.5615V20.6611H20.3369V17.7559H21.6084V20.6611Z" fill="white"/>
</svg>
